<?xml version="1.0" encoding="UTF-8"?>
<svg id="Layer_2" data-name="Layer 2" xmlns="http://www.w3.org/2000/svg" viewBox="0 0 25 25">
  <defs>
    <style>
      .cls-1 {
        fill: #ee2142;
      }

      .cls-2 {
        fill: #010101;
      }

      .cls-3 {
        fill: none;
        stroke: #010101;
        stroke-linecap: round;
        stroke-linejoin: round;
        stroke-width: 1.5px;
      }
    </style>
  </defs>
  <rect class="cls-3" x="24.74" y="25.44" width="18" height="18" rx="3.17" ry="3.17"/>
  <path class="cls-2" d="M39.62,24.83h-11.67c-2.16,0-3.92,1.75-3.92,3.92v2.06h19.5v-2.06c0-2.17-1.75-3.92-3.91-3.92Z"/>
  <g>
    <path class="cls-1" d="M23.47,6.3v.67H1.2v-.67c0-2.06,1.67-3.73,3.74-3.73h14.8c2.06,0,3.73,1.67,3.73,3.73Z"/>
    <path class="cls-1" d="M1.2,7.79v10.99c0,2.06,1.67,3.73,3.74,3.73h14.8c2.06,0,3.73-1.67,3.73-3.73V7.79H1.2ZM11.3,17.6c-.45.42-1.04.63-1.75.63s-1.28-.21-1.73-.61c-.45-.41-.68-.96-.71-1.64h1.38c.01.29.11.53.29.71.18.18.44.26.77.26.31,0,.56-.08.75-.25s.28-.38.28-.65-.09-.5-.26-.67c-.17-.16-.44-.24-.8-.24h-.62v-1.18h.64c.33,0,.58-.07.75-.22.17-.14.25-.34.25-.59s-.08-.44-.24-.6-.39-.24-.69-.24c-.33,0-.57.09-.73.28-.16.2-.24.42-.24.69h-1.39c0-.63.22-1.17.66-1.6.44-.43,1-.64,1.7-.64s1.26.18,1.68.55c.41.38.62.87.62,1.48,0,.69-.31,1.17-.93,1.44.67.26,1.01.78,1.01,1.54,0,.62-.23,1.13-.69,1.55ZM17.56,18.08h-4.36v-1.16h1.47v-4.34h-1.44v-.92l1.71-.48h1.15v5.74h1.47v1.16Z"/>
  </g>
</svg>