<?xml version="1.0" encoding="UTF-8"?>
<svg id="Layer_1" xmlns="http://www.w3.org/2000/svg" version="1.1" viewBox="0 0 558.6 91.4">
  <!-- Generator: Adobe Illustrator 29.3.1, SVG Export Plug-In . SVG Version: 2.1.0 Build 151)  -->
  <defs>
    <style>
      .st0 {
        fill: #fff;
      }
    </style>
  </defs>
  <polygon class="st0" points="16.1 16.1 16.1 38.5 46 38.5 46 53.5 16.1 53.5 16.1 90.9 1.1 90.9 1.1 1.1 60.9 1.1 60.9 16.1 16.1 16.1"/>
  <polygon class="st0" points="195.6 38.5 225.5 38.5 225.5 53.5 195.6 53.5 195.6 75.9 240.5 75.9 240.5 90.9 180.7 90.9 180.7 1.1 240.5 1.1 240.5 16.1 195.6 16.1 195.6 38.5"/>
  <path class="st0" d="M277.9,1.1v89.8h40.5c10.7,0,19.4-8.7,19.4-19.4V20.4c0-10.7-8.6-19.3-19.3-19.3,0,0-40.6,0-40.6,0ZM313,75.9h-20.2V16.1h20.4c5.3,0,9.6,4.3,9.6,9.6v40.5c0,5.4-4.4,9.7-9.7,9.7h0Z"/>
  <polygon class="st0" points="397.6 38.5 427.5 38.5 427.5 53.5 397.6 53.5 397.6 75.9 442.5 75.9 442.5 90.9 382.6 90.9 382.6 1.1 442.5 1.1 442.5 16.1 397.6 16.1 397.6 38.5"/>
  <polygon class="st0" points="517.3 1.1 517.3 16.1 494.8 16.1 494.8 90.9 479.9 90.9 479.9 16.1 457.4 16.1 457.4 1.1 517.3 1.1"/>
  <path class="st0" d="M165.7,1.1v89.8h-15v-8.6c0-2-.6-4-1.8-5.7l-28.1-38.6v52.9h-15V1.1h15v8.3c0,2,.6,3.9,1.8,5.5l28.1,38.7V1.1h15Z"/>
  <rect class="st0" x="75.9" y="1.1" width="15" height="89.8"/>
  <rect class="st0" x="352.7" y="1.1" width="15" height="89.8"/>
  <g>
    <path class="st0" d="M540.1,4.3h-6.1v19.4h-3.1V4.3h-6.1V1.1h15.3v3.1Z"/>
    <path class="st0" d="M552.4,19.4h-2.8l-3.1-8.5v12.8h-3.1V1.1h2.9l4.7,12.9,4.7-12.9h2.9v22.6h-3.1v-12.8l-3.1,8.5Z"/>
  </g>
  <metadata>
    <sfw xmlns="http://ns.adobe.com/SaveForWeb/1.0/">
      <slices/>
      <sliceSourceBounds x="1.1" y="0.5" width="557.48" height="89.8" bottomLeftOrigin="true"/>
    </sfw>
  </metadata>
</svg>