<?xml version="1.0" encoding="UTF-8"?>
<svg id="Layer_1" xmlns="http://www.w3.org/2000/svg" version="1.1" viewBox="0 0 463.7 101.4">
  <!-- Generator: Adobe Illustrator 29.7.1, SVG Export Plug-In . SVG Version: 2.1.1 Build 8)  -->
  <defs>
    <style>
      .st0 {
        fill: #4a4a4a;
      }
    </style>
  </defs>
  <polygon class="st0" points="29 29 29 72.4 86.9 72.4 86.9 101.4 0 101.4 0 0 115.8 0 115.8 29 29 29"/>
  <polygon class="st0" points="376.8 29 376.8 72.4 434.7 72.4 434.7 101.4 347.9 101.4 347.9 0 463.7 0 463.7 29 376.8 29"/>
  <path class="st0" d="M235.3,26.7l54.3,74.7h-35.9l-21.8-30v30h-29.1V0h29.1v16.1c0,3.9,1.2,7.5,3.5,10.7h-.1Z"/>
  <rect class="st0" x="289.8" width="29.1" height="101.5"/>
  <rect class="st0" x="144.8" width="29.1" height="101.5"/>
  <polygon class="st0" points="289.8 101.4 289.8 101.7 289.6 101.4 289.8 101.4"/>
</svg>